<svg version="1.1" viewBox="0.0 0.0 96.0 72.0" fill="none" stroke="none" stroke-linecap="square" stroke-miterlimit="10" xmlns:xlink="http://www.w3.org/1999/xlink" xmlns="http://www.w3.org/2000/svg"><clipPath id="p.0"><path d="m0 0l96.0 0l0 72.0l-96.0 0l0 -72.0z" clip-rule="nonzero"/></clipPath><g clip-path="url(#p.0)"><path fill="#000000" fill-opacity="0.0" d="m0 0l96.0 0l0 72.0l-96.0 0z" fill-rule="evenodd"/><g filter="url(#shadowFilter-p.1)"><use xlink:href="#p.1" transform="matrix(1.0 0.0 0.0 1.0 -2.2641289177842028 1.9681769743991961)"/></g><defs><filter id="shadowFilter-p.1" filterUnits="userSpaceOnUse"><feGaussianBlur in="SourceAlpha" stdDeviation="0.5" result="blur"/><feComponentTransfer in="blur" color-interpolation-filters="sRGB"><feFuncR type="linear" slope="0" intercept="0.2627451"/><feFuncG type="linear" slope="0" intercept="0.2627451"/><feFuncB type="linear" slope="0" intercept="0.2627451"/><feFuncA type="linear" slope="0.79" intercept="0"/></feComponentTransfer></filter></defs><g id="p.1"><path fill="#000000" fill-opacity="0.0" d="m0 0l96.0 0l0 72.0l-96.0 0z" fill-rule="evenodd"/><path fill="#ffffff" d="m30.241081 50.966873q-1.140625 0 -1.90625 -0.75q-0.75 -0.75 -0.75 -1.890625l0 -12.796875q0 -2.96875 -1.09375 -4.828125q-1.078125 -1.875 -2.9375 -2.78125q-1.84375 -0.921875 -4.234375 -0.921875q-2.1875 0 -3.953125 0.890625q-1.765625 0.875 -2.8125 2.359375q-1.03125 1.484375 -1.03125 3.40625l-3.28125 0q0 -3.28125 1.578125 -5.84375q1.59375 -2.578125 4.34375 -4.078125q2.765625 -1.515625 6.203125 -1.515625q3.578125 0 6.40625 1.53125q2.84375 1.53125 4.484375 4.5q1.640625 2.96875 1.640625 7.28125l0 12.796875q0 1.140625 -0.765625 1.890625q-0.75 0.75 -1.890625 0.75zm-21.375 0q-1.140625 0 -1.890625 -0.75q-0.75 -0.75 -0.75 -1.890625l0 -23.203125q0 -1.1875 0.75 -1.90625q0.75 -0.734375 1.890625 -0.734375q1.203125 0 1.921875 0.734375q0.734375 0.71875 0.734375 1.90625l0 23.203125q0 1.140625 -0.734375 1.890625q-0.71875 0.75 -1.921875 0.75zm0 -10.390625q-1.140625 0 -1.890625 -0.75q-0.75 -0.765625 -0.75 -1.90625l0 -24.953125q0 -1.203125 0.75 -1.921875q0.75 -0.734375 1.890625 -0.734375q1.203125 0 1.921875 0.734375q0.734375 0.71875 0.734375 1.921875l0 24.953125q0 1.140625 -0.734375 1.90625q-0.71875 0.75 -1.921875 0.75zm43.219162 10.34375q-2.609375 0 -4.6875 -1.328125q-2.078125 -1.328125 -3.28125 -3.609375q-1.1875 -2.296875 -1.1875 -5.15625l0 -24.796875q0 -1.140625 0.71875 -1.859375q0.734375 -0.734375 1.875 -0.734375q1.15625 0 1.875 0.734375q0.734375 0.71875 0.734375 1.859375l0 24.796875q0 2.078125 1.140625 3.484375q1.140625 1.40625 2.8125 1.40625l1.765625 0q0.9375 0 1.578125 0.734375q0.65625 0.71875 0.65625 1.875q0 1.140625 -0.859375 1.875q-0.859375 0.71875 -2.203125 0.71875l-0.9375 0zm-11.546875 -22.9375q-1.09375 0 -1.765625 -0.625q-0.671875 -0.625 -0.671875 -1.546875q0 -1.046875 0.671875 -1.671875q0.671875 -0.625 1.765625 -0.625l12.015625 0q1.09375 0 1.765625 0.625q0.671875 0.625 0.671875 1.671875q0 0.921875 -0.671875 1.546875q-0.671875 0.625 -1.765625 0.625l-12.015625 0zm24.69577 35.109375q-1.140625 0 -1.890625 -0.765625q-0.75 -0.75 -0.75 -1.890625l0 -23.71875q0.046875 -4.09375 1.90625 -7.375q1.875 -3.28125 5.09375 -5.171875q3.234375 -1.90625 7.296875 -1.90625q4.109375 0 7.328125 1.90625q3.21875 1.890625 5.109375 5.171875q1.90625 3.28125 1.90625 7.375q0 4.109375 -1.75 7.359375q-1.734375 3.25 -4.75 5.15625q-3.015625 1.890625 -6.8125 1.890625q-3.0625 0 -5.640625 -1.265625q-2.578125 -1.28125 -4.390625 -3.46875l0 14.046875q0 1.140625 -0.734375 1.890625q-0.71875 0.765625 -1.921875 0.765625zm11.65625 -16.640625q2.640625 0 4.71875 -1.265625q2.09375 -1.28125 3.3125 -3.484375q1.21875 -2.21875 1.21875 -4.984375q0 -2.796875 -1.21875 -5.0q-1.21875 -2.21875 -3.3125 -3.484375q-2.078125 -1.28125 -4.71875 -1.28125q-2.609375 0 -4.71875 1.28125q-2.09375 1.265625 -3.296875 3.484375q-1.1875 2.203125 -1.1875 5.0q0 2.765625 1.1875 4.984375q1.203125 2.203125 3.296875 3.484375q2.109375 1.265625 4.71875 1.265625z" fill-rule="nonzero"/></g></g></svg>