<svg version="1.1" viewBox="0.0 0.0 100.0 100.0" fill="none" stroke="none" stroke-linecap="square" stroke-miterlimit="10" xmlns:xlink="http://www.w3.org/1999/xlink" xmlns="http://www.w3.org/2000/svg"><clipPath id="p.0"><path d="m0 0l100.0 0l0 100.0l-100.0 0l0 -100.0z" clip-rule="nonzero"/></clipPath><g clip-path="url(#p.0)"><path fill="#000000" fill-opacity="0.0" d="m0 0l100.0 0l0 100.0l-100.0 0z" fill-rule="evenodd"/><path fill="#000000" fill-opacity="0.0" d="m4.2372704 53.531364l91.52756 0l0 40.377953l-91.52756 0z" fill-rule="evenodd"/><path fill="#ffffff" d="m20.448391 68.34699q-0.296875 0 -0.5 -0.1875q-0.1875 -0.203125 -0.1875 -0.5l0 -3.265625q0 -0.7656288 -0.28125 -1.2500038q-0.265625 -0.484375 -0.75 -0.703125q-0.46875 -0.234375 -1.078125 -0.234375q-0.5625 0 -1.015625 0.234375q-0.453125 0.21875 -0.71875 0.59375q-0.265625 0.375 -0.265625 0.875l-0.84375 0q0 -0.84375 0.40625 -1.5q0.40625 -0.65625 1.109375 -1.046875q0.703125 -0.390625 1.59375 -0.390625q0.921875 0 1.640625 0.390625q0.734375 0.390625 1.140625 1.15625q0.421875 0.765625 0.421875 1.8750038l0 3.265625q0 0.296875 -0.1875 0.5q-0.1875 0.1875 -0.484375 0.1875zm-5.484375 0q-0.28125 0 -0.484375 -0.1875q-0.1875 -0.203125 -0.1875 -0.5l0 -5.937504q0 -0.3125 0.1875 -0.5q0.203125 -0.1875 0.484375 -0.1875q0.3125 0 0.5 0.1875q0.1875 0.1875 0.1875 0.5l0 5.937504q0 0.296875 -0.1875 0.5q-0.1875 0.1875 -0.5 0.1875zm0 -2.671875q-0.28125 0 -0.484375 -0.1875q-0.1875 -0.1875 -0.1875 -0.484375l0 -6.406254q0 -0.296875 0.1875 -0.484375q0.203125 -0.1875 0.484375 -0.1875q0.3125 0 0.5 0.1875q0.1875 0.1875 0.1875 0.484375l0 6.406254q0 0.296875 -0.1875 0.484375q-0.1875 0.1875 -0.5 0.1875zm11.462448 2.703125q-0.96875 0 -1.75 -0.484375q-0.765625 -0.484375 -1.21875 -1.3125q-0.4375 -0.828125 -0.4375 -1.890625q0 -1.0468788 0.484375 -1.8906288q0.484375 -0.84375 1.3125 -1.328125q0.84375 -0.484375 1.875 -0.484375q1.046875 0 1.875 0.484375q0.828125 0.484375 1.3125 1.328125q0.484375 0.84375 0.484375 1.8906288l-0.515625 0q0 1.0625 -0.453125 1.890625q-0.453125 0.828125 -1.21875 1.3125q-0.765625 0.484375 -1.75 0.484375zm0.265625 -1.1875q0.6875 0 1.21875 -0.328125q0.53125 -0.328125 0.828125 -0.890625q0.3125 -0.578125 0.3125 -1.28125q0 -0.7187538 -0.3125 -1.2812538q-0.296875 -0.5625 -0.828125 -0.890625q-0.53125 -0.328125 -1.21875 -0.328125q-0.65625 0 -1.203125 0.328125q-0.53125 0.328125 -0.859375 0.890625q-0.3125 0.5625 -0.3125 1.2812538q0 0.703125 0.3125 1.28125q0.328125 0.5625 0.859375 0.890625q0.546875 0.328125 1.203125 0.328125zm2.984375 1.15625q-0.28125 0 -0.484375 -0.1875q-0.1875 -0.203125 -0.1875 -0.5l0 -2.03125l0.25 -1.421875l1.109375 0.484375l0 2.96875q0 0.296875 -0.203125 0.5q-0.1875 0.1875 -0.484375 0.1875zm4.0120697 3.1875q-0.125 0 -0.3125 -0.078125q-0.59375 -0.265625 -0.328125 -0.84375l4.078125 -9.187504q0.265625 -0.5625 0.828125 -0.3125q0.609375 0.25 0.34375 0.828125l-4.078125 9.171879q-0.171875 0.421875 -0.53125 0.421875zm1.578125 -3.5q-0.25 0.109375 -0.46875 0.03125q-0.21875 -0.09375 -0.359375 -0.34375l-3.046875 -5.796879q-0.140625 -0.25 -0.046875 -0.484375q0.109375 -0.234375 0.359375 -0.34375q0.25 -0.109375 0.46875 -0.015625q0.234375 0.078125 0.359375 0.328125l2.921875 5.796879q0.125 0.265625 0.09375 0.5q-0.03125 0.21875 -0.28125 0.328125zm6.965088 0.34375q-0.9375 0 -1.734375 -0.28125q-0.796875 -0.28125 -1.234375 -0.71875q-0.203125 -0.21875 -0.171875 -0.484375q0.046875 -0.28125 0.265625 -0.453125q0.265625 -0.21875 0.515625 -0.1875q0.265625 0.03125 0.453125 0.234375q0.234375 0.25 0.734375 0.484375q0.5 0.21875 1.109375 0.21875q0.78125 0 1.1875 -0.25q0.40625 -0.265625 0.40625 -0.65625q0.015625 -0.40625 -0.375 -0.6875q-0.390625 -0.296875 -1.4375 -0.484375q-1.34375 -0.265625 -1.953125 -0.796875q-0.59375 -0.5468788 -0.59375 -1.3125038q0 -0.6875 0.390625 -1.125q0.40625 -0.453125 1.03125 -0.671875q0.625 -0.21875 1.3125 -0.21875q0.875 0 1.546875 0.28125q0.6875 0.28125 1.078125 0.765625q0.1875 0.21875 0.171875 0.453125q0 0.234375 -0.21875 0.390625q-0.21875 0.15625 -0.515625 0.109375q-0.28125 -0.0625 -0.484375 -0.25q-0.328125 -0.328125 -0.71875 -0.4375q-0.390625 -0.125 -0.890625 -0.125q-0.59375 0 -1.0 0.203125q-0.40625 0.203125 -0.40625 0.578125q0 0.25 0.125 0.4375q0.125 0.1875 0.5 0.34375q0.375 0.15625 1.09375 0.2968788q1.0 0.203125 1.578125 0.515625q0.578125 0.296875 0.828125 0.703125q0.265625 0.40625 0.265625 0.953125q0 0.609375 -0.328125 1.109375q-0.328125 0.484375 -0.96875 0.78125q-0.625 0.28125 -1.5625 0.28125zm11.142273 -0.046875q-0.671875 0 -1.203125 -0.34375q-0.53125 -0.34375 -0.84375 -0.921875q-0.3125 -0.59375 -0.3125 -1.3125l0 -6.359379q0 -0.296875 0.1875 -0.484375q0.1875 -0.1875 0.484375 -0.1875q0.296875 0 0.484375 0.1875q0.1875 0.1875 0.1875 0.484375l0 6.359379q0 0.53125 0.28125 0.890625q0.296875 0.359375 0.734375 0.359375l0.453125 0q0.234375 0 0.390625 0.1875q0.171875 0.1875 0.171875 0.46875q0 0.296875 -0.21875 0.484375q-0.21875 0.1875 -0.5625 0.1875l-0.234375 0zm-2.96875 -5.875004q-0.28125 0 -0.453125 -0.15625q-0.171875 -0.171875 -0.171875 -0.40625q0 -0.265625 0.171875 -0.421875q0.171875 -0.171875 0.453125 -0.171875l3.078125 0q0.28125 0 0.453125 0.171875q0.171875 0.15625 0.171875 0.421875q0 0.234375 -0.171875 0.40625q-0.171875 0.15625 -0.453125 0.15625l-3.078125 0zm8.688309 5.921879q-0.96875 0 -1.75 -0.484375q-0.765625 -0.484375 -1.21875 -1.3125q-0.4375 -0.828125 -0.4375 -1.890625q0 -1.0468788 0.484375 -1.8906288q0.484375 -0.84375 1.3125 -1.328125q0.84375 -0.484375 1.875 -0.484375q1.046875 0 1.875 0.484375q0.828125 0.484375 1.3125 1.328125q0.484375 0.84375 0.484375 1.8906288l-0.515625 0q0 1.0625 -0.453125 1.890625q-0.453125 0.828125 -1.21875 1.3125q-0.765625 0.484375 -1.75 0.484375zm0.265625 -1.1875q0.6875 0 1.21875 -0.328125q0.53125 -0.328125 0.828125 -0.890625q0.3125 -0.578125 0.3125 -1.28125q0 -0.7187538 -0.3125 -1.2812538q-0.296875 -0.5625 -0.828125 -0.890625q-0.53125 -0.328125 -1.21875 -0.328125q-0.65625 0 -1.203125 0.328125q-0.53125 0.328125 -0.859375 0.890625q-0.3125 0.5625 -0.3125 1.2812538q0 0.703125 0.3125 1.28125q0.328125 0.5625 0.859375 0.890625q0.546875 0.328125 1.203125 0.328125zm2.984375 1.15625q-0.28125 0 -0.484375 -0.1875q-0.1875 -0.203125 -0.1875 -0.5l0 -2.03125l0.25 -1.421875l1.109375 0.484375l0 2.96875q0 0.296875 -0.203125 0.5q-0.1875 0.1875 -0.484375 0.1875zm4.449566 -0.015625q-0.59375 0 -1.046875 -0.3125q-0.453125 -0.328125 -0.703125 -0.875q-0.25 -0.5625 -0.25 -1.28125l0 -7.281254q0 -0.28125 0.1875 -0.46875q0.1875 -0.1875 0.46875 -0.1875q0.296875 0 0.484375 0.1875q0.1875 0.1875 0.1875 0.46875l0 7.281254q0 0.5 0.1875 0.828125q0.1875 0.3125 0.484375 0.3125l0.328125 0q0.265625 0 0.421875 0.1875q0.171875 0.1875 0.171875 0.46875q0 0.296875 -0.25 0.484375q-0.25 0.1875 -0.65625 0.1875l-0.015625 0zm3.9984283 0q-0.59375 0 -1.046875 -0.3125q-0.453125 -0.328125 -0.703125 -0.875q-0.25 -0.5625 -0.25 -1.28125l0 -7.281254q0 -0.28125 0.1875 -0.46875q0.1875 -0.1875 0.46875 -0.1875q0.296875 0 0.484375 0.1875q0.1875 0.1875 0.1875 0.46875l0 7.281254q0 0.5 0.1875 0.828125q0.1875 0.3125 0.484375 0.3125l0.328125 0q0.265625 0 0.421875 0.1875q0.171875 0.1875 0.171875 0.46875q0 0.296875 -0.25 0.484375q-0.25 0.1875 -0.65625 0.1875l-0.015625 0zm5.2859344 0.046875q-1.109375 0 -1.96875 -0.46875q-0.859375 -0.46875 -1.34375 -1.296875q-0.484375 -0.84375 -0.484375 -1.921875q0 -1.0937538 0.453125 -1.9218788q0.46875 -0.828125 1.28125 -1.296875q0.8125 -0.484375 1.859375 -0.484375q1.046875 0 1.78125 0.46875q0.75 0.453125 1.140625 1.265625q0.40625 0.796875 0.40625 1.8437538q0 0.265625 -0.1875 0.4375q-0.171875 0.15625 -0.4375 0.15625l-5.359375 0l0 -1.0625l5.328125 0l-0.546875 0.375q-0.015625 -0.6718788 -0.265625 -1.1875038q-0.25 -0.53125 -0.71875 -0.84375q-0.46875 -0.3125 -1.140625 -0.3125q-0.75 0 -1.296875 0.34375q-0.546875 0.328125 -0.828125 0.90625q-0.265625 0.578125 -0.265625 1.3125038q0 0.734375 0.328125 1.3125q0.328125 0.5625 0.90625 0.90625q0.59375 0.328125 1.359375 0.328125q0.40625 0 0.84375 -0.15625q0.4375 -0.15625 0.703125 -0.34375q0.203125 -0.15625 0.4375 -0.15625q0.234375 -0.015625 0.40625 0.140625q0.21875 0.203125 0.234375 0.4375q0.015625 0.234375 -0.21875 0.40625q-0.453125 0.359375 -1.125 0.59375q-0.671875 0.21875 -1.28125 0.21875zm6.1517334 3.15625q-0.125 0 -0.3125 -0.078125q-0.59375 -0.265625 -0.328125 -0.84375l4.078125 -9.187504q0.265625 -0.5625 0.828125 -0.3125q0.609375 0.25 0.34375 0.828125l-4.078125 9.171879q-0.171875 0.421875 -0.53125 0.421875zm1.578125 -3.5q-0.25 0.109375 -0.46875 0.03125q-0.21875 -0.09375 -0.359375 -0.34375l-3.046875 -5.796879q-0.140625 -0.25 -0.046875 -0.484375q0.109375 -0.234375 0.359375 -0.34375q0.25 -0.109375 0.46875 -0.015625q0.234375 0.078125 0.359375 0.328125l2.921875 5.796879q0.125 0.265625 0.09375 0.5q-0.03125 0.21875 -0.28125 0.328125z" fill-rule="nonzero"/><path fill="#ffffff" d="m27.35239 87.45637q-0.28125 0 -0.484375 -0.203125q-0.1875 -0.1875 -0.1875 -0.484375l0 -6.078125q0.015625 -1.046875 0.484375 -1.890625q0.484375 -0.84375 1.3125 -1.328125q0.828125 -0.484375 1.859375 -0.484375q1.0625 0 1.890625 0.484375q0.828125 0.484375 1.3125 1.328125q0.484375 0.84375 0.484375 1.890625q0 1.0625 -0.453125 1.890625q-0.4375 0.828125 -1.21875 1.3125q-0.765625 0.484375 -1.75 0.484375q-0.78125 0 -1.4375 -0.3125q-0.65625 -0.328125 -1.125 -0.890625l0 3.59375q0 0.296875 -0.1875 0.484375q-0.1875 0.203125 -0.5 0.203125zm2.984375 -4.265625q0.6875 0 1.21875 -0.328125q0.53125 -0.328125 0.84375 -0.890625q0.3125 -0.578125 0.3125 -1.28125q0 -0.71875 -0.3125 -1.28125q-0.3125 -0.5625 -0.84375 -0.890625q-0.53125 -0.328125 -1.21875 -0.328125q-0.65625 0 -1.203125 0.328125q-0.53125 0.328125 -0.84375 0.890625q-0.3125 0.5625 -0.3125 1.28125q0 0.703125 0.3125 1.28125q0.3125 0.5625 0.84375 0.890625q0.546875 0.328125 1.203125 0.328125zm11.869644 1.15625q-0.296875 0 -0.5 -0.1875q-0.1875 -0.203125 -0.1875 -0.5l0 -3.265625q0 -0.765625 -0.28125 -1.25q-0.265625 -0.484375 -0.75 -0.703125q-0.46875 -0.234375 -1.078125 -0.234375q-0.5625 0 -1.015625 0.234375q-0.453125 0.21875 -0.71875 0.59375q-0.265625 0.375 -0.265625 0.875l-0.84375 0q0 -0.84375 0.40625 -1.5q0.40625 -0.65625 1.109375 -1.046875q0.703125 -0.390625 1.59375 -0.390625q0.921875 0 1.640625 0.390625q0.734375 0.390625 1.140625 1.15625q0.421875 0.765625 0.421875 1.875l0 3.265625q0 0.296875 -0.1875 0.5q-0.1875 0.1875 -0.484375 0.1875zm-5.484375 0q-0.28125 0 -0.484375 -0.1875q-0.1875 -0.203125 -0.1875 -0.5l0 -5.9375q0 -0.3125 0.1875 -0.5q0.203125 -0.1875 0.484375 -0.1875q0.3125 0 0.5 0.1875q0.1875 0.1875 0.1875 0.5l0 5.9375q0 0.296875 -0.1875 0.5q-0.1875 0.1875 -0.5 0.1875zm0 -2.671875q-0.28125 0 -0.484375 -0.1875q-0.1875 -0.1875 -0.1875 -0.484375l0 -6.40625q0 -0.296875 0.1875 -0.484375q0.203125 -0.1875 0.484375 -0.1875q0.3125 0 0.5 0.1875q0.1875 0.1875 0.1875 0.484375l0 6.40625q0 0.296875 -0.1875 0.484375q-0.1875 0.1875 -0.5 0.1875zm11.728073 2.703125q-1.078125 0 -1.90625 -0.46875q-0.828125 -0.46875 -1.296875 -1.296875q-0.46875 -0.84375 -0.46875 -1.921875q0 -1.09375 0.46875 -1.921875q0.46875 -0.828125 1.296875 -1.296875q0.828125 -0.484375 1.90625 -0.484375q1.078125 0 1.890625 0.484375q0.828125 0.46875 1.296875 1.296875q0.484375 0.828125 0.484375 1.921875q0 1.078125 -0.46875 1.921875q-0.46875 0.828125 -1.296875 1.296875q-0.828125 0.46875 -1.90625 0.46875zm0 -1.1875q0.703125 0 1.234375 -0.3125q0.53125 -0.328125 0.828125 -0.890625q0.296875 -0.5625 0.296875 -1.296875q0 -0.734375 -0.296875 -1.296875q-0.296875 -0.5625 -0.828125 -0.875q-0.53125 -0.328125 -1.234375 -0.328125q-0.6875 0 -1.21875 0.328125q-0.53125 0.3125 -0.84375 0.875q-0.3125 0.5625 -0.3125 1.296875q0 0.734375 0.3125 1.296875q0.3125 0.5625 0.84375 0.890625q0.53125 0.3125 1.21875 0.3125zm8.35582 1.140625q-0.671875 0 -1.203125 -0.34375q-0.53125 -0.34375 -0.84375 -0.921875q-0.3125 -0.59375 -0.3125 -1.3125l0 -6.359375q0 -0.296875 0.1875 -0.484375q0.1875 -0.1875 0.484375 -0.1875q0.296875 0 0.484375 0.1875q0.1875 0.1875 0.1875 0.484375l0 6.359375q0 0.53125 0.28125 0.890625q0.296875 0.359375 0.734375 0.359375l0.453125 0q0.234375 0 0.390625 0.1875q0.171875 0.1875 0.171875 0.46875q0 0.296875 -0.21875 0.484375q-0.21875 0.1875 -0.5625 0.1875l-0.234375 0zm-2.96875 -5.875q-0.28125 0 -0.453125 -0.15625q-0.171875 -0.171875 -0.171875 -0.40625q0 -0.265625 0.171875 -0.421875q0.171875 -0.171875 0.453125 -0.171875l3.078125 0q0.28125 0 0.453125 0.171875q0.171875 0.15625 0.171875 0.421875q0 0.234375 -0.171875 0.40625q-0.171875 0.15625 -0.453125 0.15625l-3.078125 0zm8.953934 5.921875q-1.078125 0 -1.90625 -0.46875q-0.828125 -0.46875 -1.296875 -1.296875q-0.46875 -0.84375 -0.46875 -1.921875q0 -1.09375 0.46875 -1.921875q0.46875 -0.828125 1.296875 -1.296875q0.828125 -0.484375 1.90625 -0.484375q1.078125 0 1.8906212 0.484375q0.828125 0.46875 1.296875 1.296875q0.484375 0.828125 0.484375 1.921875q0 1.078125 -0.46875 1.921875q-0.46875 0.828125 -1.296875 1.296875q-0.8281212 0.46875 -1.9062462 0.46875zm0 -1.1875q0.703125 0 1.2343712 -0.3125q0.53125 -0.328125 0.828125 -0.890625q0.296875 -0.5625 0.296875 -1.296875q0 -0.734375 -0.296875 -1.296875q-0.296875 -0.5625 -0.828125 -0.875q-0.5312462 -0.328125 -1.2343712 -0.328125q-0.6875 0 -1.21875 0.328125q-0.53125 0.3125 -0.84375 0.875q-0.3125 0.5625 -0.3125 1.296875q0 0.734375 0.3125 1.296875q0.3125 0.5625 0.84375 0.890625q0.53125 0.3125 1.21875 0.3125zm8.355816 1.1875q-0.9375 0 -1.734375 -0.28125q-0.796875 -0.28125 -1.234375 -0.71875q-0.203125 -0.21875 -0.171875 -0.484375q0.046875 -0.28125 0.265625 -0.453125q0.265625 -0.21875 0.515625 -0.1875q0.265625 0.03125 0.453125 0.234375q0.234375 0.25 0.734375 0.484375q0.5 0.21875 1.109375 0.21875q0.78125 0 1.1875 -0.25q0.40625 -0.265625 0.40625 -0.65625q0.015625 -0.40625 -0.375 -0.6875q-0.390625 -0.296875 -1.4375 -0.484375q-1.34375 -0.265625 -1.953125 -0.796875q-0.59375 -0.546875 -0.59375 -1.3125q0 -0.6875 0.390625 -1.125q0.40625 -0.453125 1.03125 -0.671875q0.625 -0.21875 1.3125 -0.21875q0.875 0 1.546875 0.28125q0.6875 0.28125 1.078125 0.765625q0.1875 0.21875 0.171875 0.453125q0 0.234375 -0.21875 0.390625q-0.21875 0.15625 -0.515625 0.109375q-0.28125 -0.0625 -0.484375 -0.25q-0.328125 -0.328125 -0.71875 -0.4375q-0.390625 -0.125 -0.890625 -0.125q-0.59375 0 -1.0 0.203125q-0.40625 0.203125 -0.40625 0.578125q0 0.25 0.125 0.4375q0.125 0.1875 0.5 0.34375q0.375 0.15625 1.09375 0.296875q1.0 0.203125 1.578125 0.515625q0.578125 0.296875 0.828125 0.703125q0.265625 0.40625 0.265625 0.953125q0 0.609375 -0.328125 1.109375q-0.328125 0.484375 -0.96875 0.78125q-0.625 0.28125 -1.5625 0.28125z" fill-rule="nonzero"/><path fill="#000000" fill-opacity="0.0" d="m4.2372704 6.0912075l91.52756 0l0 49.984253l-91.52756 0z" fill-rule="evenodd"/><path fill="#ffffff" d="m36.339207 46.53808q-0.875 0 -1.453125 -0.578125q-0.578125 -0.59375 -0.578125 -1.46875l0 -9.84375q0 -2.28125 -0.84375 -3.718748q-0.84375 -1.4375 -2.265625 -2.140625q-1.421875 -0.703125 -3.25 -0.703125q-1.6875 0 -3.046875 0.6875q-1.359375 0.671875 -2.15625 1.8125q-0.796875 1.140625 -0.796875 2.624998l-2.53125 0q0 -2.515623 1.21875 -4.499998q1.21875 -1.984375 3.34375 -3.140625q2.125 -1.15625 4.765625 -1.15625q2.75 0 4.921875 1.1875q2.1875 1.171875 3.453125 3.453125q1.265625 2.28125 1.265625 5.593748l0 9.84375q0 0.875 -0.59375 1.46875q-0.578125 0.578125 -1.453125 0.578125zm-16.4375 0q-0.875 0 -1.46875 -0.578125q-0.578125 -0.59375 -0.578125 -1.46875l0 -17.843748q0 -0.921875 0.578125 -1.46875q0.59375 -0.5625 1.46875 -0.5625q0.921875 0 1.484375 0.5625q0.5625 0.546875 0.5625 1.46875l0 17.843748q0 0.875 -0.5625 1.46875q-0.5625 0.578125 -1.484375 0.578125zm0 -8.0q-0.875 0 -1.46875 -0.578125q-0.578125 -0.59375 -0.578125 -1.46875l0 -19.203123q0 -0.921875 0.578125 -1.46875q0.59375 -0.5625 1.46875 -0.5625q0.921875 0 1.484375 0.5625q0.5625 0.546875 0.5625 1.46875l0 19.203123q0 0.875 -0.5625 1.46875q-0.5625 0.578125 -1.484375 0.578125zm33.24185 7.953125q-2.0 0 -3.609375 -1.015625q-1.59375 -1.03125 -2.515625 -2.78125q-0.921875 -1.765625 -0.921875 -3.96875l0 -19.078123q0 -0.875 0.5625 -1.4375q0.5625 -0.5625 1.4375 -0.5625q0.890625 0 1.4375 0.5625q0.5625 0.5625 0.5625 1.4375l0 19.078123q0 1.609375 0.875 2.6875q0.890625 1.078125 2.171875 1.078125l1.359375 0q0.71875 0 1.21875 0.5625q0.5 0.5625 0.5 1.4375q0 0.875 -0.671875 1.4375q-0.65625 0.5625 -1.6875 0.5625l-0.71875 0zm-8.875 -17.640623q-0.84375 0 -1.375 -0.46875q-0.515625 -0.484375 -0.515625 -1.203125q0 -0.8125 0.515625 -1.28125q0.53125 -0.484375 1.375 -0.484375l9.234375 0q0.84375 0 1.359375 0.484375q0.515625 0.46875 0.515625 1.28125q0 0.71875 -0.515625 1.203125q-0.515625 0.46875 -1.359375 0.46875l-9.234375 0zm18.993103 26.999998q-0.875 0 -1.46875 -0.578125q-0.578125 -0.578125 -0.578125 -1.46875l0 -18.234375q0.046875 -3.15625 1.484375 -5.671873q1.4374962 -2.53125 3.9218712 -3.984375q2.484375 -1.46875 5.59375 -1.46875q3.171875 0 5.640625 1.46875q2.484375 1.453125 3.9375 3.984375q1.46875 2.515623 1.46875 5.671873q0 3.15625 -1.34375 5.65625q-1.34375 2.5 -3.671875 3.96875q-2.3125 1.453125 -5.21875 1.453125q-2.359375 0 -4.34375 -0.96875q-1.984375 -0.984375 -3.375 -2.671875l0 10.796875q0 0.890625 -0.5625 1.46875q-0.5625 0.578125 -1.4843712 0.578125zm8.953121 -12.796875q2.046875 0 3.640625 -0.984375q1.609375 -0.984375 2.546875 -2.671875q0.9375 -1.703125 0.9375 -3.828125q0 -2.15625 -0.9375 -3.859373q-0.9375 -1.703125 -2.546875 -2.671875q-1.59375 -0.984375 -3.640625 -0.984375q-2.0 0 -3.625 0.984375q-1.609375 0.96875 -2.53125 2.671875q-0.921875 1.7031231 -0.921875 3.859373q0 2.125 0.921875 3.828125q0.921875 1.6875 2.53125 2.671875q1.625 0.984375 3.625 0.984375z" fill-rule="nonzero"/></g></svg>